<?xml version="1.0" encoding="utf-8"?>
<!-- Generator: Adobe Illustrator 25.4.1, SVG Export Plug-In . SVG Version: 6.00 Build 0)  -->
<svg version="1.1" id="Layer_1" xmlns="http://www.w3.org/2000/svg" xmlns:xlink="http://www.w3.org/1999/xlink" x="0px" y="0px"
	 viewBox="0 0 992 483" style="enable-background:new 0 0 992 483;" xml:space="preserve">
<style type="text/css">
	.st0{fill:#FFFFFF;}
</style>
<g>
	<path class="st0" d="M395,241.5L241.3,87.7L196,133L87.7,241.5L196,350l0,0l45.3,45.3L395,241.5z M196,164.3l77.2,77.2L196,318.7
		l-77.2-77.2L196,164.3z M304.3,241.5l-92.8-92.9l29.8-29.8l122.5,122.6L241.3,364.1l-29.8-29.8L304.3,241.5z"/>
	<g>
		<path class="st0" d="M541.1,197.7l35.3,87.7h-22.6l-7.5-19h-35.3l-7.4,19h-21.2l35-87.7C517.6,197.7,541.1,197.7,541.1,197.7z
			 M517.3,250.6h23.1L529,221.7h-0.6L517.3,250.6z"/>
		<path class="st0" d="M572.4,240.5h33v15.2h-27L572.4,240.5z"/>
		<path class="st0" d="M640.1,197.7V268h44.5v17.4h-65.7v-87.7C618.9,197.7,640.1,197.7,640.1,197.7z"/>
		<path class="st0" d="M717.1,198v87.7H696V198C696,198,717.1,198,717.1,198z"/>
		<path class="st0" d="M726.6,241.5c0-27,19.6-45.5,44.6-45.5c25.5,0,40.3,13.9,42.3,36.1l-20.6,0.7c-1.1-11-8.6-18.1-21.3-18.1
			c-14.6,0-23.4,10.6-23.4,26.9c0,16.7,9.1,27.7,25.1,27.7c9.6,0,17.8-4.9,20.9-13.5h-21v-15.3h40.9v44.9h-18.5v-11
			c-4.7,8.8-14.8,12.7-26.5,12.7C744.8,287,726.6,268.7,726.6,241.5z"/>
		<path class="st0" d="M885,250.3v-52.6h19.4v87.7h-16.9l-40.6-55.9v55.9h-19.4v-87.7h20.3L885,250.3z"/>
	</g>
</g>
</svg>
