<?xml version="1.0" encoding="utf-8"?>
<!-- Generator: Adobe Illustrator 27.2.0, SVG Export Plug-In . SVG Version: 6.00 Build 0)  -->
<svg version="1.1" id="Layer_1" xmlns="http://www.w3.org/2000/svg" xmlns:xlink="http://www.w3.org/1999/xlink" x="0px" y="0px"
	 viewBox="0 0 1200 300" style="enable-background:new 0 0 1200 300;" xml:space="preserve">
<style type="text/css">
	.st0{fill:#252524;}
	.st1{fill:#252525;}
</style>
<g>
	<path class="st0" d="M415.5,84.8l51.9,130.4H430l-9.7-25.2h-50.9l-9.7,25.2h-35.4l51.9-130.4H415.5z M379.5,163.7h30.6l-14.9-38.5
		h-0.8L379.5,163.7z"/>
	<path class="st0" d="M554.4,168c1.2,16.4,13.9,21.9,28.4,21.9c12.2,0,20.1-4.3,20.1-11.6c0-7.7-7.7-8.9-17.6-10.8l-23.8-4.1
		c-21.3-3.9-36.2-15.9-36.2-38.7c0-26.5,20.7-42.4,53.2-42.4c36,0,55.5,17.6,56.1,46.6l-32.3,0.6c-1-13.5-10.8-19.7-24.2-19.7
		c-11.6,0-18.2,4.6-18.2,11.8c0,6,5,8.3,13,9.7l24.6,4.3c27.3,4.8,39.7,19,39.7,40.4c0,27.7-24,41.6-54.4,41.6
		c-35.4,0-60.6-17.2-60.6-48.6L554.4,168z"/>
	<path class="st0" d="M712.3,82.3c39.9,0,61.3,25.5,63.7,57.9l-33.7,1.2c-2.1-14.5-9.9-27.9-30.2-27.9c-19.2,0-30.4,14.3-30.4,36.4
		s11.2,36.4,30.4,36.4c20.3,0,28.1-13.5,30.2-27.9l33.7,1.4c-2.5,32.5-23.8,57.7-63.7,57.7c-38.1,0-66.8-27.5-66.8-67.7
		C645.5,109.8,674.2,82.3,712.3,82.3z"/>
	<path class="st0" d="M890.3,215.2H787.7V84.8h100.8v29h-66.2v21.3h51.1v28.6h-51.1v22.6h68.1V215.2z"/>
	<path class="st0" d="M988.4,157V84.8h32.3v130.4h-28.1L936.3,138v77.2H904V84.8h33.5L988.4,157z"/>
	<path class="st0" d="M1038.5,84.8h51.5c43.3,0,70,24.4,70,65.2s-26.7,65.2-70,65.2h-51.5V84.8z M1087.6,187.5
		c22.8,0,36.2-13.7,36.2-37.7c0-23.6-13.5-37.3-36.2-37.3h-13.9v74.9H1087.6z"/>
	<path class="st0" d="M455.5,147.5h54v29.2h-42.2L455.5,147.5z"/>
</g>
<path class="st1" d="M269.6,150L154.8,35.2L40,150l81.1,81.1l0,0l33.6,33.6L269.6,150z M121.1,93.5l56.5,56.5l-56.5,56.5L64.6,150
	L121.1,93.5z M202.3,150l-68.8-68.8l21.3-21.3l90.1,90.1l-90.1,90.1l-21.3-21.3L202.3,150z"/>
</svg>
